{
  "accessors": [
    {
      "bufferView": 0,
      "componentType": 5125,
      "count": 6846,
      "type": "SCALAR"
    },
    {
      "bufferView": 1,
      "componentType": 5126,
      "count": 1881,
      "max": [
        33.575008392334,
        -1.42454087734222,
        73.0429306030273
      ],
      "min": [
        -33.575008392334,
        -3.80000877380371,
        -73.0429382324219
      ],
      "type": "VEC3"
    },
    {
      "bufferView": 2,
      "componentType": 5126,
      "count": 1881,
      "type": "VEC3"
    },
    {
      "bufferView": 3,
      "componentType": 5126,
      "count": 1881,
      "type": "VEC2"
    },
    {
      "bufferView": 4,
      "componentType": 5125,
      "count": 372,
      "type": "SCALAR"
    },
    {
      "bufferView": 5,
      "componentType": 5126,
      "count": 130,
      "max": [
        11.2255887985229,
        10.7469482421875,
        1.0
      ],
      "min": [
        -11.2723598480225,
        -10.7468299865723,
        -1.9073486328125e-06
      ],
      "type": "VEC3"
    },
    {
      "bufferView": 6,
      "componentType": 5126,
      "count": 130,
      "type": "VEC3"
    },
    {
      "bufferView": 7,
      "componentType": 5126,
      "count": 130,
      "type": "VEC2"
    },
    {
      "bufferView": 8,
      "componentType": 5125,
      "count": 4842,
      "type": "SCALAR"
    },
    {
      "bufferView": 9,
      "componentType": 5126,
      "count": 867,
      "max": [
        33.5339469909668,
        3.80001020431519,
        73.0298080444336
      ],
      "min": [
        -33.5339508056641,
        1.42454087734222,
        -73.0298156738281
      ],
      "type": "VEC3"
    },
    {
      "bufferView": 10,
      "componentType": 5126,
      "count": 867,
      "type": "VEC3"
    },
    {
      "bufferView": 11,
      "componentType": 5126,
      "count": 867,
      "type": "VEC2"
    },
    {
      "bufferView": 12,
      "componentType": 5125,
      "count": 18228,
      "type": "SCALAR"
    },
    {
      "bufferView": 13,
      "componentType": 5126,
      "count": 5078,
      "max": [
        34.628662109375,
        3.60984063148499,
        74.4499893188477
      ],
      "min": [
        -34.6286582946777,
        -3.60984015464783,
        -74.4500045776367
      ],
      "type": "VEC3"
    },
    {
      "bufferView": 14,
      "componentType": 5126,
      "count": 5078,
      "type": "VEC3"
    },
    {
      "bufferView": 15,
      "componentType": 5126,
      "count": 5078,
      "type": "VEC2"
    },
    {
      "bufferView": 16,
      "componentType": 5125,
      "count": 27870,
      "type": "SCALAR"
    },
    {
      "bufferView": 17,
      "componentType": 5126,
      "count": 5139,
      "max": [
        5.12891292572021,
        2.18109512329102,
        15.3646965026855
      ],
      "min": [
        -18.6518859863281,
        -3.06094026565552,
        -0.371513366699219
      ],
      "type": "VEC3"
    },
    {
      "bufferView": 18,
      "componentType": 5126,
      "count": 5139,
      "type": "VEC3"
    },
    {
      "bufferView": 19,
      "componentType": 5126,
      "count": 5139,
      "type": "VEC2"
    },
    {
      "bufferView": 20,
      "componentType": 5125,
      "count": 264,
      "type": "SCALAR"
    },
    {
      "bufferView": 21,
      "componentType": 5126,
      "count": 69,
      "max": [
        32.1975288391113,
        -2.74050998687744,
        67.6302261352539
      ],
      "min": [
        -32.1975288391113,
        -3.75019240379333,
        -67.2302398681641
      ],
      "type": "VEC3"
    },
    {
      "bufferView": 22,
      "componentType": 5126,
      "count": 69,
      "type": "VEC3"
    },
    {
      "bufferView": 23,
      "componentType": 5126,
      "count": 69,
      "type": "VEC2"
    }
  ],
  "asset": {
    "generator": "Substance Painter 6.2.2",
    "version": "2.0"
  },
  "bufferViews": [
    {
      "buffer": 0,
      "byteLength": 27384,
      "target": 34963
    },
    {
      "buffer": 0,
      "byteLength": 22572,
      "byteOffset": 27384,
      "target": 34962
    },
    {
      "buffer": 0,
      "byteLength": 22572,
      "byteOffset": 49956,
      "target": 34962
    },
    {
      "buffer": 0,
      "byteLength": 15048,
      "byteOffset": 72528,
      "target": 34962
    },
    {
      "buffer": 0,
      "byteLength": 1488,
      "byteOffset": 87576,
      "target": 34963
    },
    {
      "buffer": 0,
      "byteLength": 1560,
      "byteOffset": 89064,
      "target": 34962
    },
    {
      "buffer": 0,
      "byteLength": 1560,
      "byteOffset": 90624,
      "target": 34962
    },
    {
      "buffer": 0,
      "byteLength": 1040,
      "byteOffset": 92184,
      "target": 34962
    },
    {
      "buffer": 0,
      "byteLength": 19368,
      "byteOffset": 93224,
      "target": 34963
    },
    {
      "buffer": 0,
      "byteLength": 10404,
      "byteOffset": 112592,
      "target": 34962
    },
    {
      "buffer": 0,
      "byteLength": 10404,
      "byteOffset": 122996,
      "target": 34962
    },
    {
      "buffer": 0,
      "byteLength": 6936,
      "byteOffset": 133400,
      "target": 34962
    },
    {
      "buffer": 0,
      "byteLength": 72912,
      "byteOffset": 140336,
      "target": 34963
    },
    {
      "buffer": 0,
      "byteLength": 60936,
      "byteOffset": 213248,
      "target": 34962
    },
    {
      "buffer": 0,
      "byteLength": 60936,
      "byteOffset": 274184,
      "target": 34962
    },
    {
      "buffer": 0,
      "byteLength": 40624,
      "byteOffset": 335120,
      "target": 34962
    },
    {
      "buffer": 0,
      "byteLength": 111480,
      "byteOffset": 375744,
      "target": 34963
    },
    {
      "buffer": 0,
      "byteLength": 61668,
      "byteOffset": 487224,
      "target": 34962
    },
    {
      "buffer": 0,
      "byteLength": 61668,
      "byteOffset": 548892,
      "target": 34962
    },
    {
      "buffer": 0,
      "byteLength": 41112,
      "byteOffset": 610560,
      "target": 34962
    },
    {
      "buffer": 0,
      "byteLength": 1056,
      "byteOffset": 651672,
      "target": 34963
    },
    {
      "buffer": 0,
      "byteLength": 828,
      "byteOffset": 652728,
      "target": 34962
    },
    {
      "buffer": 0,
      "byteLength": 828,
      "byteOffset": 653556,
      "target": 34962
    },
    {
      "buffer": 0,
      "byteLength": 552,
      "byteOffset": 654384,
      "target": 34962
    }
  ],
  "buffers": [
    {
      "byteLength": 654936,
      "uri": "MotoG_5G.bin"
    }
  ],
  "images": [
    {
      "uri": "Moto5G_baseColor.png"
    },
    {
      "uri": "Moto5G_occlusionRoughnessMetallic.png"
    },
    {
      "uri": "Moto5G_normal.png"
    },
    {
      "uri": "Moto5G_emissive.png"
    }
  ],
  "materials": [
    {
      "alphaMode": "OPAQUE",
      "emissiveFactor": [
        1.0,
        1.0,
        1.0
      ],
      "emissiveTexture": {
        "index": 3
      },
      "name": "Moto5G",
      "normalTexture": {
        "index": 2
      },
      "occlusionTexture": {
        "index": 1
      },
      "pbrMetallicRoughness": {
        "baseColorTexture": {
          "index": 0
        },
        "metallicRoughnessTexture": {
          "index": 1
        }
      }
    }
  ],
  "meshes": [
    {
      "name": "Black_galaxy_s8_front019",
      "primitives": [
        {
          "attributes": {
            "NORMAL": 2,
            "POSITION": 1,
            "TEXCOORD_0": 3
          },
          "indices": 0,
          "material": 0,
          "mode": 4
        }
      ]
    },
    {
      "name": "Line37828",
      "primitives": [
        {
          "attributes": {
            "NORMAL": 6,
            "POSITION": 5,
            "TEXCOORD_0": 7
          },
          "indices": 4,
          "material": 0,
          "mode": 4
        }
      ]
    },
    {
      "name": "Black_galaxy_s8_back019",
      "primitives": [
        {
          "attributes": {
            "NORMAL": 10,
            "POSITION": 9,
            "TEXCOORD_0": 11
          },
          "indices": 8,
          "material": 0,
          "mode": 4
        }
      ]
    },
    {
      "name": "Black_galaxy_s8_body019",
      "primitives": [
        {
          "attributes": {
            "NORMAL": 14,
            "POSITION": 13,
            "TEXCOORD_0": 15
          },
          "indices": 12,
          "material": 0,
          "mode": 4
        }
      ]
    },
    {
      "name": "Black_galaxy_s8_ports019",
      "primitives": [
        {
          "attributes": {
            "NORMAL": 18,
            "POSITION": 17,
            "TEXCOORD_0": 19
          },
          "indices": 16,
          "material": 0,
          "mode": 4
        }
      ]
    },
    {
      "name": "Object007",
      "primitives": [
        {
          "attributes": {
            "NORMAL": 22,
            "POSITION": 21,
            "TEXCOORD_0": 23
          },
          "indices": 20,
          "material": 0,
          "mode": 4
        }
      ]
    }
  ],
  "nodes": [
    {
      "children": [
        1
      ],
      "name": "RootNode"
    },
    {
      "children": [
        2,
        4,
        6,
        8,
        10,
        12
      ],
      "name": "LP",
      "rotation": [
        -0.70710676908493,
        0.0,
        0.0,
        0.70710676908493
      ],
      "translation": [
        5.7220458984375e-06,
        -7.62939453125e-06,
        2.64644622802734e-05
      ]
    },
    {
      "children": [
        3
      ],
      "name": "Black_galaxy_s8_front019",
      "rotation": [
        2.38418579101563e-07,
        1.48208914953517e-22,
        6.21633244825195e-16,
        1.0
      ],
      "scale": [
        1.10230600833893,
        1.16473305225372,
        1.12375497817993
      ],
      "translation": [
        -5.7220458984375e-06,
        -0.13864541053772,
        7.62939453125e-06
      ]
    },
    {
      "mesh": 0,
      "name": "Black_galaxy_s8_front019"
    },
    {
      "children": [
        5
      ],
      "name": "Line37828",
      "rotation": [
        1.37678753731052e-07,
        0.707106709480286,
        0.707106828689575,
        1.994960285856e-07
      ],
      "scale": [
        1.10230600833893,
        1.12375497817993,
        0.230174005031586
      ],
      "translation": [
        17.9999942779541,
        4.33449554443359,
        60.2548904418945
      ]
    },
    {
      "mesh": 1,
      "name": "Line37828"
    },
    {
      "children": [
        7
      ],
      "name": "Black_galaxy_s8_back019",
      "rotation": [
        2.38418579101563e-07,
        0.0,
        0.0,
        1.0
      ],
      "scale": [
        1.10230600833893,
        1.16473305225372,
        1.12375497817993
      ],
      "translation": [
        -0.0937557220458984,
        0.0532491207122803,
        7.63311982154846e-06
      ]
    },
    {
      "mesh": 2,
      "name": "Black_galaxy_s8_back019"
    },
    {
      "children": [
        9
      ],
      "name": "Black_galaxy_s8_body019",
      "rotation": [
        2.38418579101563e-07,
        1.48208914953517e-22,
        6.21633244825195e-16,
        1.0
      ],
      "scale": [
        1.10230600833893,
        1.16473305225372,
        1.12375497817993
      ],
      "translation": [
        -5.7220458984375e-06,
        -0.13864541053772,
        7.62939453125e-06
      ]
    },
    {
      "mesh": 3,
      "name": "Black_galaxy_s8_body019"
    },
    {
      "children": [
        11
      ],
      "name": "Black_galaxy_s8_ports019",
      "rotation": [
        2.38418579101563e-07,
        0.0,
        0.0,
        1.0
      ],
      "scale": [
        1.10230600833893,
        1.16473305225372,
        1.12375497817993
      ],
      "translation": [
        -5.7220458984375e-06,
        0.89431357383728,
        -81.1591720581055
      ]
    },
    {
      "mesh": 4,
      "name": "Black_galaxy_s8_ports019"
    },
    {
      "children": [
        13
      ],
      "name": "Object007",
      "rotation": [
        2.38418579101563e-07,
        1.48208965440615e-22,
        6.21633244825195e-16,
        1.0
      ],
      "scale": [
        1.10230600833893,
        1.16473305225372,
        1.12375497817993
      ],
      "translation": [
        -5.7220458984375e-06,
        -0.13864541053772,
        7.62939453125e-06
      ]
    },
    {
      "mesh": 5,
      "name": "Object007"
    }
  ],
  "samplers": [
    {
      "magFilter": 9729,
      "minFilter": 9985,
      "wrapS": 10497,
      "wrapT": 10497
    }
  ],
  "scene": 0,
  "scenes": [
    {
      "name": "Scene",
      "nodes": [
        0
      ]
    }
  ],
  "textures": [
    {
      "sampler": 0,
      "source": 0
    },
    {
      "sampler": 0,
      "source": 1
    },
    {
      "sampler": 0,
      "source": 2
    },
    {
      "sampler": 0,
      "source": 3
    }
  ]
}